<svg width="20" height="20" viewBox="0 0 20 20" fill="none" xmlns="http://www.w3.org/2000/svg">
<path d="M9.99992 5.83333C12.2999 5.83333 14.1666 7.7 14.1666 10C14.1666 10.5417 14.0583 11.05 13.8666 11.525L16.2999 13.9583C17.5583 12.9083 18.5499 11.55 19.1583 10C17.7166 6.34167 14.1583 3.75 9.99159 3.75C8.82492 3.75 7.70825 3.95833 6.67492 4.33333L8.47492 6.13333C8.94992 5.94167 9.45825 5.83333 9.99992 5.83333ZM1.66659 3.55833L3.56659 5.45833L3.94992 5.84167C2.56659 6.91667 1.48325 8.35 0.833252 10C2.27492 13.6583 5.83325 16.25 9.99992 16.25C11.2916 16.25 12.5249 16 13.6499 15.55L13.9999 15.9L16.4416 18.3333L17.4999 17.275L2.72492 2.5L1.66659 3.55833ZM6.27492 8.16667L7.56659 9.45833C7.52492 9.63334 7.49992 9.81667 7.49992 10C7.49992 11.3833 8.61659 12.5 9.99992 12.5C10.1833 12.5 10.3666 12.475 10.5416 12.4333L11.8333 13.725C11.2749 14 10.6583 14.1667 9.99992 14.1667C7.69992 14.1667 5.83325 12.3 5.83325 10C5.83325 9.34167 5.99992 8.725 6.27492 8.16667V8.16667ZM9.86659 7.51667L12.4916 10.1417L12.5083 10.0083C12.5083 8.625 11.3916 7.50833 10.0083 7.50833L9.86659 7.51667Z" fill="#231F20"/>
</svg>
